<svg width="32" height="33" viewBox="0 0 32 33" fill="none" xmlns="http://www.w3.org/2000/svg">
<path d="M23.5801 24.6896C26.2263 22.2198 27.4024 18.1034 26.6967 14.1635H16.1707V18.5151H22.1688C21.9335 19.9264 21.1103 21.1025 19.9342 21.867L23.5801 24.6896Z" fill="#4285F4"/>
<path d="M6.1738 21.2201C7.74116 24.3076 10.6386 26.5052 14.0343 27.182C17.4301 27.8589 20.9487 26.9402 23.5801 24.6896L19.9342 21.8669C16.8175 23.9251 11.6427 23.1606 9.87851 18.3386L6.1738 21.2201Z" fill="#34A853"/>
<path d="M9.87851 18.3386C9.40807 16.8685 9.40807 15.516 9.87851 14.0459L6.1738 11.1644C4.82129 13.8695 4.40965 17.6918 6.1738 21.2201L9.87851 18.3386Z" fill="#FBBC02"/>
<path d="M9.87851 14.0459C11.1722 9.98835 16.6999 7.63615 20.4046 11.1056L23.6389 7.93017C19.0521 3.5198 10.1137 3.69622 6.1738 11.1644L9.87851 14.0459Z" fill="#EA4335"/>
</svg>
